<?xml version="1.0" encoding="UTF-8"?>
<svg version="1.1" xmlns="http://www.w3.org/2000/svg" width="179" height="166">
<path d="M0 0 C59.07 0 118.14 0 179 0 C179 54.78 179 109.56 179 166 C119.93 166 60.86 166 0 166 C0 111.22 0 56.44 0 0 Z " fill="#FFFCFC" transform="translate(0,0)"/>
<path d="M0 0 C0 0.66 0 1.32 0 2 C0.94875 2.28875 1.8975 2.5775 2.875 2.875 C6 4 6 4 8 6 C8.25 8.5 8.25 8.5 8 11 C6 13 6 13 3.30078125 13.3671875 C-0.74551671 12.91706678 -3.4675294 11.28521565 -6.8125 9.125 C-18.82006304 1.37553514 -35.16549756 0.833663 -48.96875 3.6875 C-62.15898784 7.45613938 -75.04438171 15.92504664 -82 28 C-82.77140057 29.63922622 -83.53683167 31.28522102 -84.17578125 32.98046875 C-85 35 -85 35 -86.29296875 37.30078125 C-89.96590191 44.41001601 -90.47777148 50.64152395 -90.5 58.5625 C-90.50604248 59.51962891 -90.51208496 60.47675781 -90.51831055 61.46289062 C-90.39315544 68.66886566 -90.15239521 77.65801858 -84.98242188 83.13891602 C-84.32822266 83.75307373 -83.67402344 84.36723145 -83 85 C-81.98234073 86.99107248 -80.98422146 88.99218823 -80 91 C-79.09023492 92.10986004 -78.17321264 93.21380066 -77.25 94.3125 C-75.11679155 97.20802619 -74.70826257 98.98410158 -75.0625 102.5625 C-75.70357011 106.16235523 -76.68592067 109.58339374 -78 113 C-77.28714844 112.62746094 -76.57429688 112.25492187 -75.83984375 111.87109375 C-66.16772306 107.09361287 -66.16772306 107.09361287 -60 109 C-58.39259394 109.65881779 -56.78868712 110.32620853 -55.1875 111 C-50.03015727 113.13087814 -45.55242725 113.81638799 -40 114 C-38.69546875 114.06316406 -37.3909375 114.12632812 -36.046875 114.19140625 C-27.68923689 114.47691857 -20.70359883 113.85272548 -12.734375 110.97265625 C-10.15793288 110.05617898 -7.69000843 109.46633358 -5 109 C-5 108.34 -5 107.68 -5 107 C-3.3125 105.80859375 -3.3125 105.80859375 -1 104.4375 C3.46916485 101.57048859 6.68958994 98.30799155 10.078125 94.24609375 C12 92 12 92 14.5625 89.71875 C17.58744687 86.34477079 18.5604683 83.36157932 19.75 79.0625 C19.95753906 78.37220703 20.16507812 77.68191406 20.37890625 76.97070312 C22.7968186 68.74200143 23.08097492 61.24547319 22.78515625 52.72460938 C22.77097656 51.90412109 22.75679688 51.08363281 22.7421875 50.23828125 C22.7201123 49.49618408 22.69803711 48.75408691 22.67529297 47.98950195 C23.09442843 45.42143065 23.93165488 44.53421204 26 43 C28.67479327 43.26095544 30.60095141 43.8004757 33 45 C33.1255612 49.17674513 33.2152361 53.35243101 33.2746582 57.53051758 C33.29948116 58.94542622 33.33335255 60.36021121 33.37719727 61.7746582 C33.70910584 72.77449883 31.96754505 81.06490991 27 91 C26.34 91 25.68 91 25 91 C24.773125 91.680625 24.54625 92.36125 24.3125 93.0625 C19.33985511 104.19175284 9.40325681 111.23792679 -1 117 C-1.66 117 -2.32 117 -3 117 C-3 117.66 -3 118.32 -3 119 C-5.1843191 119.82101314 -7.37262436 120.63142482 -9.5625 121.4375 C-10.78066406 121.88996094 -11.99882813 122.34242188 -13.25390625 122.80859375 C-26.5409977 127.03441533 -45.44479007 126.70214773 -58.375 121.3125 C-62.91419091 119.66899984 -66.32442068 119.83421187 -70.81152344 121.78930664 C-72.64290048 122.76206992 -74.41610144 123.79709335 -76.1875 124.875 C-76.79013672 125.22691406 -77.39277344 125.57882813 -78.01367188 125.94140625 C-80.53278009 127.42909035 -82.91722422 128.93286457 -85.19140625 130.77734375 C-87 132 -87 132 -90.75 131.6875 C-92.35875 131.3471875 -92.35875 131.3471875 -94 131 C-94.19294408 126.17639811 -93.75747614 122.50353262 -92 118 C-91.34 118 -90.68 118 -90 118 C-89.87882812 117.45472656 -89.75765625 116.90945312 -89.6328125 116.34765625 C-89.38144531 115.21650391 -89.38144531 115.21650391 -89.125 114.0625 C-88.95097656 113.24136719 -88.77695313 112.42023438 -88.59765625 111.57421875 C-88 109 -88 109 -87.24609375 106.64453125 C-85.88521701 102.28898703 -85.88521701 102.28898703 -86.8828125 97.984375 C-88.57315849 95.57537891 -90.43566915 93.54443002 -92.55078125 91.50390625 C-101.85922109 81.84420453 -101.42296015 64.35724535 -101.203125 51.86328125 C-101.04039752 48.76832983 -100.73353927 45.9992291 -100 43 C-99.34 43 -98.68 43 -98 43 C-97.89042969 42.33613281 -97.78085938 41.67226562 -97.66796875 40.98828125 C-96.77386733 36.00893596 -95.86511464 32.24036967 -93 28 C-92.62875 26.948125 -92.2575 25.89625 -91.875 24.8125 C-87.93473724 15.40078428 -76.39482056 4.06692707 -67.0625 0 C-66.051875 -0.33 -65.04125 -0.66 -64 -1 C-63.01 -1.33 -62.02 -1.66 -61 -2 C-60.67 -2.66 -60.34 -3.32 -60 -4 C-41.93477066 -10.21063091 -16.28456019 -11.8867729 0 0 Z " fill="#FF3849" transform="translate(123,23)"/>
<path d="M0 0 C1.134375 0.020625 2.26875 0.04125 3.4375 0.0625 C3.4375 0.7225 3.4375 1.3825 3.4375 2.0625 C4.05238281 2.25585938 4.66726562 2.44921875 5.30078125 2.6484375 C6.51314453 3.03902344 6.51314453 3.03902344 7.75 3.4375 C8.55050781 3.69273438 9.35101563 3.94796875 10.17578125 4.2109375 C12.4375 5.0625 12.4375 5.0625 15.4375 7.0625 C15.4375 7.7225 15.4375 8.3825 15.4375 9.0625 C16.25605469 9.29195312 17.07460937 9.52140625 17.91796875 9.7578125 C22.20963145 11.34872853 25.86134776 13.54930355 29.75 15.9375 C34.90027168 19.09608336 39.98397878 21.87101098 45.57885742 24.17236328 C47.4375 25.0625 47.4375 25.0625 49.4375 27.0625 C50.0625 29.375 50.0625 29.375 49.4375 32.0625 C46.581658 34.4510224 43.25895572 37.0625 39.4375 37.0625 C39.1075 38.0525 38.7775 39.0425 38.4375 40.0625 C36.80412405 40.82918667 35.16277489 41.58374999 33.484375 42.24609375 C31.32129907 43.10884732 29.22446332 44.05491085 27.125 45.0625 C26.46886719 45.371875 25.81273438 45.68125 25.13671875 46 C23.11325753 47.10318209 23.11325753 47.10318209 21.4375 50.0625 C19.78311387 50.75908363 18.11495682 51.42346883 16.4375 52.0625 C15.798125 52.578125 15.15875 53.09375 14.5 53.625 C11.87408806 55.45518105 9.58210275 55.70515878 6.4375 56.0625 C6.1075 57.0525 5.7775 58.0425 5.4375 59.0625 C2.45537087 60.55356457 -0.27859658 60.18191467 -3.5625 60.0625 C-5.38366003 58.24133997 -4.6948508 55.75578236 -4.69921875 53.3359375 C-4.69535156 52.58570313 -4.69148438 51.83546875 -4.6875 51.0625 C-4.69136719 50.31226563 -4.69523437 49.56203125 -4.69921875 48.7890625 C-4.68911053 43.18911053 -4.68911053 43.18911053 -3.5625 42.0625 C1.96691176 41.82720588 1.96691176 41.82720588 4.4375 43.0625 C4.4375 44.0525 4.4375 45.0425 4.4375 46.0625 C5.11554688 45.68738281 5.79359375 45.31226563 6.4921875 44.92578125 C11.20315086 42.33540389 15.91906503 39.79781983 20.75 37.4375 C23.61982594 36.0276809 26.30580303 34.56606207 28.9375 32.75 C31.4375 31.0625 31.4375 31.0625 33.4375 31.0625 C33.4375 30.4025 33.4375 29.7425 33.4375 29.0625 C32.798125 28.93875 32.15875 28.815 31.5 28.6875 C30.4790625 28.378125 30.4790625 28.378125 29.4375 28.0625 C28.9425 27.0725 28.9425 27.0725 28.4375 26.0625 C26.77172762 25.32796972 25.10265778 24.59980299 23.41601562 23.91455078 C20.19690737 22.52823689 17.21139301 20.76393759 14.1875 19 C13.27097656 18.4730957 13.27097656 18.4730957 12.3359375 17.93554688 C9.6455969 16.38184581 7.02343843 14.78645895 4.4375 13.0625 C4.44797363 13.74876465 4.45844727 14.4350293 4.46923828 15.14208984 C4.51071874 18.24052289 4.53680069 21.33889761 4.5625 24.4375 C4.57925781 25.51773438 4.59601563 26.59796875 4.61328125 27.7109375 C4.61972656 28.7421875 4.62617187 29.7734375 4.6328125 30.8359375 C4.64328613 31.78903809 4.65375977 32.74213867 4.66455078 33.72412109 C4.4375 36.0625 4.4375 36.0625 2.4375 38.0625 C-0.625 38.25 -0.625 38.25 -3.5625 38.0625 C-5.35080448 36.27419552 -4.69098711 33.86668848 -4.70144653 31.48608398 C-4.6994223 30.70692627 -4.69739807 29.92776855 -4.6953125 29.125 C-4.69626923 28.329729 -4.69722595 27.53445801 -4.69821167 26.71508789 C-4.69889343 25.0304354 -4.69703943 23.34578029 -4.69287109 21.66113281 C-4.68752275 19.07350803 -4.69281619 16.48605684 -4.69921875 13.8984375 C-4.69855797 12.26562461 -4.6972768 10.63281184 -4.6953125 9 C-4.69733673 8.22084229 -4.69936096 7.44168457 -4.70144653 6.63891602 C-4.67263797 0.0819761 -4.67263797 0.0819761 0 0 Z " fill="#FF3647" transform="translate(73.5625,53.9375)"/>
<path d="M0 0 C2.3125 0 2.3125 0 5 1 C9.52748217 5.63527937 12.81436725 10.1691005 13.25 16.8125 C13 20 13 20 12 21 C9.1875 21.375 9.1875 21.375 6 21 C1.53750926 16.80000872 -1.69872238 10.71149856 -2.375 4.625 C-2 2 -2 2 0 0 Z " fill="#FF3C4C" transform="translate(137,38)"/>
<path d="M0 0 C0.33 0 0.66 0 1 0 C0.99476318 0.64960693 0.98952637 1.29921387 0.98413086 1.96850586 C0.96313497 4.95816043 0.9502687 7.94779941 0.9375 10.9375 C0.92912109 11.95908203 0.92074219 12.98066406 0.91210938 14.03320312 C0.89269953 20.1084836 1.11769848 25.98430778 2 32 C2.33 32.33 2.66 32.66 3 33 C3.04080783 34.99958364 3.04254356 37.00045254 3 39 C1 38 1 38 0.15942383 35.91577148 C-1.81923199 28.84806091 -2.43204015 22.38313907 -2.3125 15.0625 C-2.31572266 14.04865234 -2.31894531 13.03480469 -2.32226562 11.99023438 C-2.26335628 3.88752137 -2.26335628 3.88752137 0 0 Z " fill="#FFB8BD" transform="translate(34,66)"/>
<path d="M0 0 C2.74344921 2.35262265 3.65852648 4.35549857 4.625 7.8125 C4.87121094 8.69292969 5.11742187 9.57335937 5.37109375 10.48046875 C6.07583025 13.30379201 6.62034673 16.11463516 7 19 C2.13173447 12.97262363 0.48944213 7.59479161 0 0 Z " fill="#FF8D96" transform="translate(24,96)"/>
</svg>
